Coordinates
version=1
nRows=16
nColumns=18
inDegrees=yes

Units are S.I. units (second, meters, Newtons, ...)
If the header above contains a line with 'inDegrees', this indicates whether rotational values are in degrees (yes) or radians (no).

endheader
time	ground_thorax_rot_x	ground_thorax_rot_y	ground_thorax_rot_z	ground_thorax_tx	ground_thorax_ty	ground_thorax_tz	clav_prot	clav_elev	scapula_abduction	scapula_elevation	scapula_upward_rot	scapula_winging	plane_elv	shoulder_elv	axial_rot	elbow_flexion	pro_sup
      2.00000000	      0.51728761	    -12.23209971	      3.88879131	     -0.06715492	      0.05069888	      0.02141331	    -20.72982241	     -0.21990257	      9.28034742	     -8.16539539	     52.21672699	      6.32642602	    -26.00000000	     61.12057282	     26.18104993	     22.36589390	   -177.62468917
      2.02000000	      0.51728761	    -12.15970421	      3.75787526	     -0.06660954	      0.05032810	      0.02166882	    -20.68021104	     -0.48526440	      9.05686015	     -8.31211962	     51.83806600	      6.43664210	    -26.00000000	     61.16736490	     26.29579754	     22.73241236	   -177.72194562
      2.04000000	      0.51728761	    -12.05356453	      3.61735257	     -0.06604678	      0.04993115	      0.02190130	    -20.62012278	     -0.80334393	      8.78542619	     -8.48652931	     51.37771118	      6.57247242	    -26.00000000	     61.24184412	     26.36864164	     23.12730754	   -177.78542655
      2.06000000	      0.51728761	    -11.91934061	      3.47789682	     -0.06548929	      0.04949960	      0.02212511	    -20.55035759	     -1.15771390	      8.47082370	     -8.67798649	     50.84497239	      6.72946273	    -26.00000000	     61.31831579	     26.35350350	     23.53688690	   -177.77595049
      2.08000000	      0.51728761	    -11.80638496	      3.31478213	     -0.06487321	      0.04896099	      0.02240060	    -20.47737270	     -1.51640955	      8.14563893	     -8.86914432	     50.29190286	      6.89390419	    -26.00000000	     61.34002974	     26.28516499	     23.98515156	   -177.68499305
      2.10000000	      0.51728761	    -11.59297533	      3.13059579	     -0.06425219	      0.04842983	      0.02261143	    -20.40561310	     -1.94130242	      7.71268162	     -9.09216651	     49.61210087	      7.09928285	    -26.00000000	     61.44015875	     26.06039661	     24.42503011	   -177.43288867
      2.12000000	      0.51728761	    -11.37782631	      2.99281028	     -0.06374663	      0.04788721	      0.02285960	    -20.33376616	     -2.39100794	      7.25239520	     -9.32589041	     48.89371065	      7.32431462	    -26.00000000	     61.46422386	     25.70332974	     24.89594470	   -177.00488800
      2.14000000	      0.51728761	    -11.30592661	      2.91051391	     -0.06325496	      0.04724502	      0.02321480	    -20.23046643	     -2.75275694	      6.93124821	     -9.50684015	     48.27727313	      7.50834049	    -26.00000000	     61.22433850	     25.53475704	     25.18745393	   -176.77438835
      2.16000000	      0.51728761	    -10.87145115	      2.72330695	     -0.06272202	      0.04668082	      0.02353763	    -20.29038301	     -3.22511462	      6.05878704	     -9.73792686	     47.36657553	      7.79829888	    -26.00000000	     61.11611138	     24.00220919	     25.85904603	   -173.93538868
      2.18000000	      0.51728761	    -10.51125997	      2.67603733	     -0.06242134	      0.04598771	      0.02376254	    -20.23176217	     -3.61445037	      5.40264206	     -9.90669421	     46.47046877	      8.04663797	    -26.00000000	     60.94507819	     23.54385217	     26.19338316	   -172.46975498
      2.20000000	      0.51728761	    -10.43052441	      2.46576970	     -0.06177502	      0.04529198	      0.02421493	    -20.14329523	     -4.17393078	      5.01329875	    -10.20075295	     45.74512207	      8.34086195	    -26.00000000	     60.69036207	     23.40712218	     26.51545659	   -172.30058283
      2.22000000	      0.51728761	    -10.13464055	      2.29660861	     -0.06131671	      0.04465411	      0.02450430	    -20.07650296	     -4.80226144	      4.40047610	    -10.51585885	     44.80153434	      8.70465335	    -26.00000000	     60.57942266	     23.06830534	     26.82215442	   -171.84541990
      2.24000000	      0.51728761	     -9.90662105	      2.18231093	     -0.06090561	      0.04395629	      0.02486345	    -19.99773148	     -5.34501944	      3.82159649	    -10.77289888	     43.88638353	      9.03945918	    -26.00000000	     60.26931711	     22.70329766	     27.06636380	   -171.29601693
      2.26000000	      0.51728761	     -9.41529363	      2.00568811	     -0.06043830	      0.04326680	      0.02530587	    -20.16316563	     -5.82204160	      2.74398598	    -10.98599116	     42.92106058	      9.40401040	    -26.00000000	     59.66584070	     21.34976558	     27.49573780	   -167.33639531
      2.28000000	      0.51728761	     -9.12039805	      1.85675531	     -0.06000072	      0.04253715	      0.02569186	    -20.16419429	     -6.37462169	      2.00328929	    -11.24060462	     41.96789726	      9.78135948	    -26.00000000	     59.18053123	     20.90632569	     27.70394895	   -165.97948142
      2.30000000	      0.51728761	     -8.79590876	      1.69979828	     -0.05959143	      0.04183545	      0.02602668	    -20.17302191	     -6.97949745	      1.22431067	    -11.52052448	     40.96439139	     10.20095414	    -26.00000000	     58.72575999	     20.55774840	     27.86078080	   -165.28669659
